<svg xmlns="http://www.w3.org/2000/svg" xmlns:xlink="http://www.w3.org/1999/xlink" width="48" zoomAndPan="magnify" viewBox="0 0 36 36.000001" height="48" preserveAspectRatio="xMidYMid meet" version="1.0">
  <style>
    @media (prefers-color-scheme: dark) {
    .a { fill: #f0f0f0 }
    }
  </style>
<defs><clipPath id="963b3a956f"><path d="M 1.191406 9 L 13 9 L 13 26 L 1.191406 26 Z M 1.191406 9 " clip-rule="nonzero"/></clipPath><clipPath id="658a220092"><path d="M 1.191406 8 L 13 8 L 13 27 L 1.191406 27 Z M 1.191406 8 " clip-rule="nonzero"/></clipPath><clipPath id="fdfd426ca2"><path d="M 23 9 L 34.757812 9 L 34.757812 26 L 23 26 Z M 23 9 " clip-rule="nonzero"/></clipPath><clipPath id="820a756df4"><path d="M 23 8 L 34.757812 8 L 34.757812 27 L 23 27 Z M 23 8 " clip-rule="nonzero"/></clipPath><clipPath id="b41b3fb947"><path d="M 12 4.464844 L 24 4.464844 L 24 30.734375 L 12 30.734375 Z M 12 4.464844 " clip-rule="nonzero"/></clipPath></defs><g clip-path="url(#963b3a956f)"><path class="a" fill="#2a446b" d="M 11.792969 25.742188 C 11.609375 25.742188 11.425781 25.679688 11.28125 25.5625 L 1.878906 18.167969 C 1.675781 18.007812 1.558594 17.769531 1.558594 17.511719 C 1.558594 17.257812 1.675781 17.019531 1.878906 16.859375 L 11.28125 9.460938 C 11.425781 9.347656 11.609375 9.285156 11.792969 9.285156 C 12.050781 9.285156 12.292969 9.398438 12.449219 9.601562 C 12.585938 9.777344 12.648438 9.992188 12.621094 10.214844 C 12.597656 10.433594 12.484375 10.632812 12.308594 10.769531 L 3.742188 17.511719 L 12.308594 24.253906 C 12.484375 24.394531 12.597656 24.589844 12.621094 24.8125 C 12.648438 25.03125 12.585938 25.25 12.449219 25.425781 C 12.292969 25.625 12.050781 25.742188 11.792969 25.742188 " fill-opacity="1" fill-rule="nonzero"/></g><g clip-path="url(#658a220092)"><path class="a" fill="#2a446b" d="M 11.792969 8.929688 C 11.53125 8.929688 11.269531 9.019531 11.0625 9.183594 L 1.660156 16.578125 C 1.371094 16.808594 1.207031 17.148438 1.207031 17.511719 C 1.207031 17.878906 1.371094 18.21875 1.660156 18.445312 L 11.0625 25.84375 C 11.269531 26.007812 11.53125 26.097656 11.792969 26.097656 C 12.160156 26.097656 12.503906 25.929688 12.726562 25.644531 C 12.925781 25.394531 13.011719 25.085938 12.976562 24.769531 C 12.9375 24.453125 12.777344 24.171875 12.53125 23.976562 L 4.3125 17.511719 L 12.53125 11.050781 C 12.777344 10.851562 12.9375 10.570312 12.976562 10.257812 C 13.011719 9.941406 12.925781 9.632812 12.726562 9.382812 C 12.503906 9.09375 12.160156 8.929688 11.792969 8.929688 Z M 11.792969 9.636719 C 11.9375 9.636719 12.078125 9.699219 12.171875 9.820312 C 12.335938 10.027344 12.296875 10.328125 12.089844 10.492188 L 3.167969 17.511719 L 12.089844 24.535156 C 12.296875 24.699219 12.335938 25 12.171875 25.207031 C 12.078125 25.324219 11.9375 25.386719 11.792969 25.386719 C 11.691406 25.386719 11.585938 25.355469 11.5 25.285156 L 2.097656 17.890625 C 1.980469 17.796875 1.914062 17.660156 1.914062 17.511719 C 1.914062 17.367188 1.980469 17.226562 2.097656 17.136719 L 11.5 9.738281 C 11.585938 9.671875 11.691406 9.636719 11.792969 9.636719 " fill-opacity="1" fill-rule="nonzero"/></g><g clip-path="url(#fdfd426ca2)"><path class="a" fill="#2a446b" d="M 24.199219 25.742188 C 23.945312 25.742188 23.707031 25.625 23.546875 25.425781 C 23.261719 25.066406 23.324219 24.539062 23.683594 24.253906 L 32.253906 17.511719 L 23.683594 10.769531 C 23.324219 10.484375 23.261719 9.960938 23.546875 9.601562 C 23.707031 9.398438 23.945312 9.285156 24.199219 9.285156 C 24.386719 9.285156 24.570312 9.347656 24.714844 9.460938 L 34.117188 16.859375 C 34.320312 17.019531 34.433594 17.257812 34.433594 17.511719 C 34.433594 17.769531 34.320312 18.007812 34.117188 18.167969 L 24.714844 25.5625 C 24.570312 25.679688 24.386719 25.742188 24.199219 25.742188 " fill-opacity="1" fill-rule="nonzero"/></g><g clip-path="url(#820a756df4)"><path class="a" fill="#2a446b" d="M 24.199219 8.929688 C 23.835938 8.929688 23.492188 9.09375 23.265625 9.382812 C 22.859375 9.894531 22.949219 10.644531 23.464844 11.050781 L 31.679688 17.511719 L 23.464844 23.976562 C 22.949219 24.382812 22.859375 25.128906 23.265625 25.644531 C 23.492188 25.929688 23.835938 26.097656 24.199219 26.097656 C 24.464844 26.097656 24.726562 26.007812 24.933594 25.84375 L 34.335938 18.445312 C 34.625 18.21875 34.789062 17.878906 34.789062 17.511719 C 34.789062 17.148438 34.625 16.808594 34.335938 16.578125 L 24.933594 9.183594 C 24.726562 9.019531 24.464844 8.929688 24.199219 8.929688 Z M 24.199219 9.636719 C 24.304688 9.636719 24.410156 9.671875 24.496094 9.738281 L 33.898438 17.136719 C 34.011719 17.226562 34.078125 17.367188 34.078125 17.511719 C 34.078125 17.660156 34.011719 17.796875 33.898438 17.890625 L 24.496094 25.285156 C 24.410156 25.355469 24.304688 25.386719 24.199219 25.386719 C 24.058594 25.386719 23.917969 25.324219 23.824219 25.207031 C 23.660156 25 23.695312 24.699219 23.902344 24.535156 L 32.828125 17.511719 L 23.902344 10.492188 C 23.695312 10.328125 23.660156 10.027344 23.824219 9.820312 C 23.917969 9.699219 24.058594 9.636719 24.199219 9.636719 " fill-opacity="1" fill-rule="nonzero"/></g><g clip-path="url(#b41b3fb947)"><path class="a" fill="#2a446b" d="M 13.324219 30.207031 C 13.222656 30.207031 13.121094 30.1875 13.023438 30.148438 C 12.816406 30.070312 12.652344 29.914062 12.5625 29.710938 C 12.472656 29.507812 12.46875 29.28125 12.546875 29.074219 L 21.730469 5.351562 C 21.855469 5.035156 22.167969 4.820312 22.507812 4.820312 C 22.609375 4.820312 22.710938 4.839844 22.808594 4.875 C 23.234375 5.042969 23.449219 5.527344 23.285156 5.953125 L 14.101562 29.675781 C 13.980469 29.992188 13.664062 30.207031 13.324219 30.207031 " fill-opacity="1" fill-rule="nonzero"/><path class="a" fill="#2a446b" d="M 22.507812 4.464844 C 22.019531 4.464844 21.574219 4.769531 21.398438 5.222656 L 12.21875 28.945312 C 12.105469 29.242188 12.109375 29.5625 12.238281 29.855469 C 12.367188 30.144531 12.601562 30.367188 12.898438 30.480469 C 13.035156 30.535156 13.175781 30.5625 13.324219 30.5625 C 13.8125 30.5625 14.257812 30.257812 14.433594 29.800781 L 23.613281 6.082031 C 23.851562 5.46875 23.546875 4.78125 22.933594 4.546875 C 22.800781 4.492188 22.652344 4.464844 22.507812 4.464844 Z M 22.507812 5.175781 C 22.566406 5.175781 22.621094 5.183594 22.679688 5.207031 C 22.925781 5.300781 23.046875 5.578125 22.953125 5.824219 L 13.769531 29.546875 C 13.699219 29.734375 13.515625 29.851562 13.324219 29.851562 C 13.265625 29.851562 13.207031 29.84375 13.152344 29.820312 C 12.90625 29.722656 12.785156 29.445312 12.878906 29.199219 L 22.0625 5.480469 C 22.136719 5.289062 22.316406 5.175781 22.507812 5.175781 " fill-opacity="1" fill-rule="nonzero"/></g>
</svg>