<svg xmlns="http://www.w3.org/2000/svg" xmlns:xlink="http://www.w3.org/1999/xlink" width="350" zoomAndPan="magnify" viewBox="0 0 262.5 67.499998" height="90" preserveAspectRatio="xMidYMid meet" version="1.0"><defs><g/><clipPath id="e10a9e8306"><path d="M 7.417969 22 L 24 22 L 24 45 L 7.417969 45 Z M 7.417969 22 " clip-rule="nonzero"/></clipPath><clipPath id="f5401d7cc8"><path d="M 7.417969 21 L 24 21 L 24 46 L 7.417969 46 Z M 7.417969 21 " clip-rule="nonzero"/></clipPath><clipPath id="4ab69a744a"><path d="M 37 22 L 53.574219 22 L 53.574219 45 L 37 45 Z M 37 22 " clip-rule="nonzero"/></clipPath><clipPath id="2c422d2b9f"><path d="M 37 21 L 53.574219 21 L 53.574219 46 L 37 46 Z M 37 21 " clip-rule="nonzero"/></clipPath><clipPath id="5a17a8ec76"><path d="M 22 15.585938 L 39 15.585938 L 39 51.320312 L 22 51.320312 Z M 22 15.585938 " clip-rule="nonzero"/></clipPath></defs><g clip-path="url(#e10a9e8306)"><path fill="#2a446b" d="M 21.976562 44.796875 C 21.71875 44.796875 21.46875 44.710938 21.269531 44.554688 L 8.363281 34.398438 C 8.085938 34.179688 7.925781 33.851562 7.925781 33.5 C 7.925781 33.148438 8.085938 32.820312 8.359375 32.601562 L 21.269531 22.449219 C 21.46875 22.289062 21.71875 22.203125 21.976562 22.203125 C 22.328125 22.203125 22.65625 22.359375 22.875 22.640625 C 23.0625 22.878906 23.148438 23.179688 23.109375 23.480469 C 23.074219 23.785156 22.921875 24.054688 22.683594 24.242188 L 10.917969 33.5 L 22.683594 42.753906 C 22.921875 42.945312 23.074219 43.21875 23.109375 43.519531 C 23.148438 43.824219 23.0625 44.121094 22.875 44.363281 C 22.65625 44.636719 22.328125 44.796875 21.976562 44.796875 " fill-opacity="1" fill-rule="nonzero"/></g><g clip-path="url(#f5401d7cc8)"><path fill="#2a446b" d="M 21.976562 21.714844 C 21.609375 21.714844 21.253906 21.839844 20.96875 22.066406 L 8.0625 32.21875 C 7.664062 32.53125 7.4375 33 7.4375 33.5 C 7.4375 34.003906 7.667969 34.46875 8.0625 34.78125 L 20.96875 44.9375 C 21.253906 45.160156 21.609375 45.285156 21.976562 45.285156 C 22.480469 45.285156 22.945312 45.058594 23.257812 44.660156 C 23.527344 44.320312 23.644531 43.894531 23.59375 43.460938 C 23.542969 43.03125 23.328125 42.644531 22.984375 42.375 L 11.707031 33.5 L 22.984375 24.628906 C 23.328125 24.355469 23.542969 23.972656 23.59375 23.539062 C 23.644531 23.105469 23.527344 22.679688 23.257812 22.335938 C 22.945312 21.941406 22.476562 21.714844 21.976562 21.714844 Z M 21.976562 22.691406 C 22.171875 22.691406 22.363281 22.777344 22.492188 22.9375 C 22.71875 23.226562 22.667969 23.636719 22.382812 23.863281 L 10.128906 33.5 L 22.382812 43.140625 C 22.667969 43.363281 22.71875 43.777344 22.492188 44.058594 C 22.363281 44.226562 22.171875 44.3125 21.976562 44.3125 C 21.832031 44.3125 21.691406 44.265625 21.570312 44.171875 L 8.664062 34.015625 C 8.503906 33.890625 8.414062 33.703125 8.414062 33.5 C 8.414062 33.296875 8.503906 33.109375 8.664062 32.984375 L 21.570312 22.828125 C 21.6875 22.734375 21.832031 22.691406 21.976562 22.691406 " fill-opacity="1" fill-rule="nonzero"/></g><g clip-path="url(#4ab69a744a)"><path fill="#2a446b" d="M 39.003906 44.796875 C 38.652344 44.796875 38.324219 44.636719 38.105469 44.363281 C 37.714844 43.867188 37.800781 43.148438 38.296875 42.753906 L 50.0625 33.5 L 38.296875 24.242188 C 37.800781 23.855469 37.714844 23.132812 38.105469 22.640625 C 38.324219 22.359375 38.652344 22.203125 39.003906 22.203125 C 39.261719 22.203125 39.511719 22.289062 39.710938 22.449219 L 52.621094 32.601562 C 52.898438 32.820312 53.054688 33.148438 53.054688 33.5 C 53.054688 33.851562 52.898438 34.179688 52.617188 34.398438 L 39.710938 44.554688 C 39.511719 44.710938 39.261719 44.796875 39.003906 44.796875 " fill-opacity="1" fill-rule="nonzero"/></g><g clip-path="url(#2c422d2b9f)"><path fill="#2a446b" d="M 39.003906 21.714844 C 38.503906 21.714844 38.035156 21.941406 37.722656 22.335938 C 37.167969 23.042969 37.289062 24.070312 37.996094 24.628906 L 49.273438 33.5 L 37.996094 42.375 C 37.289062 42.929688 37.167969 43.957031 37.722656 44.660156 C 38.035156 45.058594 38.503906 45.285156 39.003906 45.285156 C 39.371094 45.285156 39.726562 45.160156 40.011719 44.9375 L 52.921875 34.78125 C 53.316406 34.46875 53.542969 34.003906 53.542969 33.5 C 53.542969 33 53.316406 32.53125 52.921875 32.21875 L 40.015625 22.066406 C 39.726562 21.839844 39.371094 21.714844 39.003906 21.714844 Z M 39.003906 22.691406 C 39.148438 22.691406 39.292969 22.734375 39.410156 22.828125 L 52.320312 32.984375 C 52.476562 33.109375 52.566406 33.296875 52.566406 33.5 C 52.566406 33.703125 52.476562 33.890625 52.320312 34.015625 L 39.410156 44.171875 C 39.292969 44.265625 39.148438 44.3125 39.003906 44.3125 C 38.8125 44.3125 38.617188 44.226562 38.488281 44.058594 C 38.265625 43.777344 38.3125 43.363281 38.597656 43.140625 L 50.851562 33.5 L 38.597656 23.863281 C 38.3125 23.636719 38.265625 23.226562 38.488281 22.9375 C 38.617188 22.777344 38.8125 22.691406 39.003906 22.691406 " fill-opacity="1" fill-rule="nonzero"/></g><path fill="#2a446b" d="M 24.078125 50.925781 C 23.933594 50.925781 23.796875 50.898438 23.664062 50.847656 C 23.378906 50.738281 23.152344 50.523438 23.03125 50.246094 C 22.90625 49.964844 22.898438 49.65625 23.007812 49.371094 L 35.617188 16.804688 C 35.785156 16.371094 36.214844 16.074219 36.679688 16.074219 C 36.824219 16.074219 36.964844 16.101562 37.09375 16.152344 C 37.679688 16.382812 37.976562 17.042969 37.746094 17.632812 L 25.144531 50.195312 C 24.972656 50.632812 24.542969 50.925781 24.078125 50.925781 " fill-opacity="1" fill-rule="nonzero"/><g clip-path="url(#5a17a8ec76)"><path fill="#2a446b" d="M 36.679688 15.589844 C 36.011719 15.589844 35.402344 16.007812 35.160156 16.628906 L 22.554688 49.191406 C 22.398438 49.601562 22.410156 50.042969 22.585938 50.441406 C 22.761719 50.839844 23.082031 51.144531 23.488281 51.300781 C 23.675781 51.375 23.875 51.414062 24.078125 51.414062 C 24.746094 51.414062 25.355469 50.996094 25.597656 50.371094 L 38.203125 17.808594 C 38.527344 16.96875 38.109375 16.023438 37.269531 15.699219 C 37.082031 15.625 36.882812 15.589844 36.679688 15.589844 Z M 36.679688 16.5625 C 36.761719 16.5625 36.839844 16.578125 36.917969 16.605469 C 37.257812 16.738281 37.425781 17.117188 37.292969 17.457031 L 24.6875 50.019531 C 24.589844 50.28125 24.339844 50.4375 24.078125 50.4375 C 23.996094 50.4375 23.917969 50.425781 23.839844 50.394531 C 23.5 50.265625 23.332031 49.882812 23.464844 49.546875 L 36.070312 16.984375 C 36.171875 16.722656 36.417969 16.5625 36.679688 16.5625 " fill-opacity="1" fill-rule="nonzero"/></g><g fill="#2a446b" fill-opacity="1"><g transform="translate(57.127006, 44.237627)"><g><path d="M 13.046875 -4.46875 L 8.210938 -22.652344 L 1.535156 -22.652344 L 1.535156 0 L 5.894531 0 L 5.894531 -18.910156 L 10.867188 0 L 15.195312 0 L 20.140625 -18.882812 L 20.140625 0 L 24.527344 0 L 24.527344 -22.652344 L 17.851562 -22.652344 Z M 13.046875 -4.46875 "/></g></g></g><g fill="#2a446b" fill-opacity="1"><g transform="translate(82.122295, 44.237627)"><g><path d="M 8.9375 0.445312 C 10.558594 0.445312 13.714844 0.0820312 16.371094 -0.390625 L 16.371094 -16.035156 L 11.957031 -16.035156 L 11.957031 -3.632812 C 10.921875 -3.4375 9.917969 -3.351562 9.132812 -3.351562 C 7.039062 -3.351562 5.949219 -4.078125 5.949219 -6.117188 L 5.949219 -16.035156 L 1.507812 -16.035156 L 1.507812 -5.753906 C 1.507812 -0.949219 4.972656 0.445312 8.9375 0.445312 Z M 8.9375 0.445312 "/></g></g></g><g fill="#2a446b" fill-opacity="1"><g transform="translate(98.962617, 44.237627)"><g><path d="M 5.949219 0 L 5.949219 -11.730469 C 6.3125 -11.816406 8.128906 -11.957031 8.800781 -11.957031 L 11.203125 -11.957031 L 11.203125 -16.035156 L 8.074219 -16.035156 C 6.621094 -16.035156 3.855469 -15.921875 1.507812 -15.417969 L 1.507812 0 Z M 5.949219 0 "/></g></g></g><g fill="#2a446b" fill-opacity="1"><g transform="translate(110.161487, 44.237627)"><g><path d="M 3.714844 -18.128906 C 4.945312 -18.128906 5.921875 -18.742188 5.921875 -20.085938 C 5.921875 -21.285156 5.027344 -22.011719 3.714844 -22.011719 C 2.429688 -22.011719 1.507812 -21.285156 1.507812 -20.085938 C 1.507812 -18.742188 2.515625 -18.128906 3.714844 -18.128906 Z M 5.949219 0 L 5.949219 -16.035156 L 1.507812 -16.035156 L 1.507812 0 Z M 5.949219 0 "/></g></g></g><g fill="#2a446b" fill-opacity="1"><g transform="translate(116.556743, 44.237627)"><g><path d="M 5.949219 0 L 5.949219 -22.652344 L 1.507812 -22.652344 L 1.507812 0 Z M 5.949219 0 "/></g></g></g><g fill="#2a446b" fill-opacity="1"><g transform="translate(122.951995, 44.237627)"><g><path d="M 5.949219 0 L 5.949219 -22.652344 L 1.507812 -22.652344 L 1.507812 0 Z M 5.949219 0 "/></g></g></g><g fill="#2a446b" fill-opacity="1"><g transform="translate(129.347255, 44.237627)"><g><path d="M 10.027344 0.445312 C 15.28125 0.445312 18.9375 -3.183594 18.9375 -8.128906 L 18.9375 -8.15625 C 18.9375 -13.074219 15.28125 -16.675781 10.027344 -16.675781 C 4.777344 -16.675781 1.144531 -13.074219 1.144531 -8.15625 L 1.144531 -8.128906 C 1.144531 -3.183594 4.804688 0.445312 10.027344 0.445312 Z M 10.027344 -3.519531 C 7.375 -3.519531 5.585938 -5.53125 5.585938 -8.128906 L 5.585938 -8.183594 C 5.585938 -10.753906 7.347656 -12.710938 10.027344 -12.710938 C 12.738281 -12.710938 14.46875 -10.753906 14.46875 -8.183594 L 14.46875 -8.128906 C 14.46875 -5.53125 12.710938 -3.519531 10.027344 -3.519531 Z M 10.027344 -3.519531 "/></g></g></g><g fill="#2a446b" fill-opacity="1"><g transform="translate(148.33803, 44.237627)"><g/></g></g><g fill="#2a446b" fill-opacity="1"><g transform="translate(151.996345, 44.237627)"><g><path d="M 9.386719 0.363281 C 14.832031 0.363281 18.210938 -2.09375 18.210938 -6.339844 L 18.210938 -6.398438 C 18.210938 -10.25 16.171875 -11.789062 10.417969 -13.574219 C 7.375 -14.554688 6.171875 -15.222656 6.171875 -16.789062 L 6.171875 -16.816406 C 6.171875 -18.128906 7.402344 -19.132812 10 -19.132812 C 12.207031 -19.132812 14.441406 -18.492188 16.089844 -17.402344 L 17.765625 -21.0625 C 15.839844 -22.320312 12.90625 -23.046875 9.972656 -23.046875 C 4.832031 -23.046875 1.761719 -20.503906 1.761719 -16.730469 L 1.761719 -16.675781 C 1.761719 -12.933594 3.464844 -11.171875 8.40625 -9.691406 C 12.457031 -8.4375 13.769531 -7.820312 13.769531 -6.3125 L 13.769531 -6.285156 C 13.769531 -4.554688 11.957031 -3.574219 9.21875 -3.574219 C 6.761719 -3.574219 4.386719 -4.246094 2.710938 -5.363281 L 1.035156 -1.730469 C 3.042969 -0.390625 6.144531 0.363281 9.386719 0.363281 Z M 9.386719 0.363281 "/></g></g></g><g fill="#2a446b" fill-opacity="1"><g transform="translate(170.400626, 44.237627)"><g><path d="M 8.996094 -16.59375 C 6.957031 -16.59375 4.582031 -16.144531 3.378906 -15.671875 L 2.402344 -11.730469 C 4.164062 -12.429688 6.453125 -12.847656 8.042969 -12.847656 C 10.503906 -12.847656 11.898438 -12.125 11.898438 -10.113281 L 11.898438 -9.527344 C 10.585938 -9.691406 9.441406 -9.75 8.269531 -9.75 C 3.882812 -9.75 1.117188 -8.183594 1.117188 -4.777344 L 1.117188 -4.722656 C 1.117188 -0.949219 4.164062 0.445312 9.078125 0.445312 C 11.257812 0.445312 14.132812 0.140625 16.339844 -0.335938 L 16.339844 -10.25 C 16.339844 -15 13.4375 -16.59375 8.996094 -16.59375 Z M 5.671875 -5 C 5.671875 -6.425781 7.011719 -6.925781 9.246094 -6.925781 C 9.945312 -6.925781 11.007812 -6.84375 11.898438 -6.703125 L 11.898438 -3.242188 C 10.976562 -3.101562 10 -3.015625 9.246094 -3.015625 C 6.984375 -3.015625 5.671875 -3.574219 5.671875 -4.945312 Z M 5.671875 -5 "/></g></g></g><g fill="#2a446b" fill-opacity="1"><g transform="translate(187.129233, 44.237627)"><g><path d="M 5.949219 0 L 5.949219 -12.429688 C 6.984375 -12.597656 7.988281 -12.710938 8.769531 -12.710938 C 10.839844 -12.710938 11.957031 -11.957031 11.957031 -9.945312 L 11.957031 0 L 16.371094 0 L 16.371094 -10.476562 C 16.371094 -15.28125 12.933594 -16.675781 8.964844 -16.675781 C 7.347656 -16.675781 4.191406 -16.3125 1.507812 -15.839844 L 1.507812 0 Z M 5.949219 0 "/></g></g></g><g fill="#2a446b" fill-opacity="1"><g transform="translate(203.969558, 44.237627)"><g><path d="M 13.769531 0 L 13.769531 -4.105469 L 10.671875 -4.105469 C 8.769531 -4.105469 7.90625 -4.832031 7.90625 -6.621094 L 7.90625 -11.957031 L 13.742188 -11.957031 L 13.742188 -16.035156 L 7.90625 -16.035156 L 7.90625 -20.949219 L 3.464844 -20.949219 L 3.464844 -16.035156 L 0.640625 -16.035156 L 0.640625 -11.957031 L 3.464844 -11.957031 L 3.464844 -5.222656 C 3.464844 -1.730469 4.859375 0 8.6875 0 Z M 13.769531 0 "/></g></g></g><g fill="#2a446b" fill-opacity="1"><g transform="translate(217.849518, 44.237627)"><g><path d="M 10.027344 0.445312 C 15.28125 0.445312 18.9375 -3.183594 18.9375 -8.128906 L 18.9375 -8.15625 C 18.9375 -13.074219 15.28125 -16.675781 10.027344 -16.675781 C 4.777344 -16.675781 1.144531 -13.074219 1.144531 -8.15625 L 1.144531 -8.128906 C 1.144531 -3.183594 4.804688 0.445312 10.027344 0.445312 Z M 10.027344 -3.519531 C 7.375 -3.519531 5.585938 -5.53125 5.585938 -8.128906 L 5.585938 -8.183594 C 5.585938 -10.753906 7.347656 -12.710938 10.027344 -12.710938 C 12.738281 -12.710938 14.46875 -10.753906 14.46875 -8.183594 L 14.46875 -8.128906 C 14.46875 -5.53125 12.710938 -3.519531 10.027344 -3.519531 Z M 10.027344 -3.519531 "/></g></g></g><g fill="#2a446b" fill-opacity="1"><g transform="translate(236.840294, 44.237627)"><g><path d="M 8.183594 0.363281 C 12.960938 0.363281 15.335938 -1.367188 15.335938 -4.832031 C 15.335938 -7.375 13.660156 -8.9375 10.054688 -9.945312 L 8.910156 -10.25 C 6.984375 -10.808594 6.203125 -11.203125 6.203125 -12.011719 C 6.203125 -12.90625 7.152344 -13.210938 8.769531 -13.210938 C 10.140625 -13.210938 12.066406 -12.90625 13.492188 -12.152344 L 14.777344 -15.25 C 13.128906 -16.117188 10.671875 -16.648438 8.242188 -16.648438 C 4.078125 -16.648438 1.730469 -14.832031 1.730469 -11.871094 C 1.730469 -9.21875 3.242188 -7.652344 6.59375 -6.761719 L 8.101562 -6.367188 C 10.445312 -5.726562 10.976562 -5.363281 10.976562 -4.496094 C 10.976562 -3.324219 9.691406 -3.074219 7.792969 -3.074219 C 6.171875 -3.074219 4.21875 -3.4375 2.347656 -4.246094 L 1.144531 -1.035156 C 3.4375 -0.0820312 5.671875 0.363281 8.183594 0.363281 Z M 8.183594 0.363281 "/></g></g></g></svg>