<svg xmlns="http://www.w3.org/2000/svg" xmlns:xlink="http://www.w3.org/1999/xlink" width="500" zoomAndPan="magnify" viewBox="0 0 375 374.999991" height="500" preserveAspectRatio="xMidYMid meet" version="1.0"><defs><g/><clipPath id="c03562a28e"><path d="M 18.300781 149 L 39 149 L 39 179 L 18.300781 179 Z M 18.300781 149 " clip-rule="nonzero"/></clipPath><clipPath id="b7fc0803d7"><path d="M 18.300781 148 L 40 148 L 40 180 L 18.300781 180 Z M 18.300781 148 " clip-rule="nonzero"/></clipPath><clipPath id="9f7c7f0d52"><path d="M 38 140.472656 L 59 140.472656 L 59 187.722656 L 38 187.722656 Z M 38 140.472656 " clip-rule="nonzero"/></clipPath></defs><g clip-path="url(#c03562a28e)"><path fill="#2a446b" d="M 37.40625 178.808594 C 37.074219 178.808594 36.742188 178.695312 36.480469 178.484375 L 19.542969 165.160156 C 19.179688 164.875 18.96875 164.445312 18.96875 163.980469 C 18.96875 163.519531 19.179688 163.089844 19.542969 162.800781 L 36.480469 149.476562 C 36.742188 149.269531 37.074219 149.15625 37.40625 149.15625 C 37.871094 149.15625 38.300781 149.363281 38.585938 149.730469 C 38.832031 150.042969 38.945312 150.4375 38.898438 150.832031 C 38.851562 151.230469 38.648438 151.585938 38.335938 151.835938 L 22.898438 163.980469 L 38.335938 176.125 C 38.648438 176.375 38.851562 176.730469 38.898438 177.128906 C 38.945312 177.527344 38.832031 177.917969 38.585938 178.234375 C 38.300781 178.597656 37.871094 178.808594 37.40625 178.808594 " fill-opacity="1" fill-rule="nonzero"/></g><g clip-path="url(#b7fc0803d7)"><path fill="#2a446b" d="M 37.40625 148.515625 C 36.929688 148.515625 36.460938 148.679688 36.085938 148.976562 L 19.148438 162.300781 C 18.628906 162.710938 18.332031 163.324219 18.332031 163.980469 C 18.332031 164.640625 18.628906 165.253906 19.148438 165.664062 L 36.085938 178.988281 C 36.460938 179.28125 36.929688 179.445312 37.40625 179.445312 C 38.070312 179.445312 38.683594 179.148438 39.089844 178.628906 C 39.445312 178.179688 39.601562 177.621094 39.535156 177.054688 C 39.464844 176.488281 39.179688 175.976562 38.730469 175.625 L 23.929688 163.980469 L 38.730469 152.335938 C 39.179688 151.980469 39.464844 151.476562 39.535156 150.910156 C 39.601562 150.34375 39.445312 149.78125 39.089844 149.332031 C 38.683594 148.8125 38.066406 148.515625 37.40625 148.515625 Z M 37.40625 149.796875 C 37.664062 149.796875 37.914062 149.90625 38.085938 150.121094 C 38.382812 150.496094 38.316406 151.039062 37.941406 151.332031 L 21.863281 163.980469 L 37.941406 176.628906 C 38.316406 176.921875 38.382812 177.464844 38.085938 177.839844 C 37.914062 178.054688 37.664062 178.167969 37.40625 178.167969 C 37.222656 178.167969 37.035156 178.109375 36.875 177.984375 L 19.9375 164.660156 C 19.730469 164.496094 19.609375 164.246094 19.609375 163.980469 C 19.609375 163.714844 19.730469 163.46875 19.9375 163.304688 L 36.875 149.980469 C 37.03125 149.855469 37.222656 149.796875 37.40625 149.796875 " fill-opacity="1" fill-rule="nonzero"/></g><path fill="#2a446b" d="M 59.753906 178.808594 C 59.292969 178.808594 58.863281 178.597656 58.574219 178.234375 C 58.0625 177.585938 58.175781 176.640625 58.828125 176.125 L 74.265625 163.980469 L 58.828125 151.835938 C 58.175781 151.324219 58.0625 150.378906 58.574219 149.730469 C 58.863281 149.363281 59.292969 149.15625 59.753906 149.15625 C 60.089844 149.15625 60.417969 149.269531 60.683594 149.476562 L 77.621094 162.800781 C 77.984375 163.089844 78.191406 163.519531 78.191406 163.980469 C 78.191406 164.445312 77.984375 164.875 77.617188 165.160156 L 60.683594 178.484375 C 60.417969 178.695312 60.089844 178.808594 59.753906 178.808594 " fill-opacity="1" fill-rule="nonzero"/><path fill="#2a446b" d="M 59.753906 148.515625 C 59.097656 148.515625 58.484375 148.8125 58.074219 149.332031 C 57.34375 150.261719 57.503906 151.605469 58.429688 152.335938 L 73.230469 163.980469 L 58.429688 175.625 C 57.503906 176.355469 57.34375 177.703125 58.074219 178.628906 C 58.484375 179.148438 59.097656 179.445312 59.753906 179.445312 C 60.234375 179.445312 60.699219 179.28125 61.074219 178.988281 L 78.015625 165.664062 C 78.535156 165.253906 78.828125 164.640625 78.828125 163.980469 C 78.828125 163.324219 78.535156 162.710938 78.015625 162.300781 L 61.078125 148.976562 C 60.703125 148.679688 60.234375 148.515625 59.753906 148.515625 Z M 59.753906 149.796875 C 59.941406 149.796875 60.128906 149.855469 60.285156 149.980469 L 77.226562 163.304688 C 77.433594 163.46875 77.550781 163.714844 77.550781 163.980469 C 77.550781 164.246094 77.433594 164.496094 77.226562 164.660156 L 60.285156 177.984375 C 60.128906 178.109375 59.941406 178.167969 59.753906 178.167969 C 59.5 178.167969 59.246094 178.054688 59.078125 177.839844 C 58.785156 177.464844 58.847656 176.921875 59.222656 176.628906 L 75.296875 163.980469 L 59.222656 151.332031 C 58.847656 151.039062 58.785156 150.496094 59.078125 150.121094 C 59.246094 149.90625 59.503906 149.796875 59.753906 149.796875 " fill-opacity="1" fill-rule="nonzero"/><path fill="#2a446b" d="M 40.164062 186.847656 C 39.976562 186.847656 39.796875 186.8125 39.621094 186.746094 C 39.25 186.601562 38.953125 186.320312 38.792969 185.953125 C 38.628906 185.585938 38.621094 185.179688 38.765625 184.804688 L 55.304688 142.074219 C 55.527344 141.5 56.089844 141.113281 56.703125 141.113281 C 56.890625 141.113281 57.074219 141.152344 57.25 141.21875 C 58.019531 141.515625 58.402344 142.386719 58.105469 143.160156 L 41.566406 185.890625 C 41.34375 186.460938 40.777344 186.847656 40.164062 186.847656 " fill-opacity="1" fill-rule="nonzero"/><g clip-path="url(#9f7c7f0d52)"><path fill="#2a446b" d="M 56.703125 140.476562 C 55.828125 140.476562 55.027344 141.027344 54.710938 141.84375 L 38.167969 184.574219 C 37.964844 185.109375 37.976562 185.6875 38.207031 186.210938 C 38.441406 186.734375 38.859375 187.136719 39.394531 187.339844 C 39.640625 187.4375 39.898438 187.488281 40.164062 187.488281 C 41.039062 187.488281 41.84375 186.9375 42.160156 186.121094 L 58.699219 143.390625 C 59.125 142.289062 58.578125 141.046875 57.476562 140.621094 C 57.230469 140.523438 56.96875 140.476562 56.703125 140.476562 Z M 56.703125 141.753906 C 56.808594 141.753906 56.914062 141.773438 57.015625 141.8125 C 57.460938 141.984375 57.679688 142.480469 57.507812 142.925781 L 40.964844 185.65625 C 40.835938 186 40.507812 186.210938 40.164062 186.210938 C 40.058594 186.210938 39.953125 186.191406 39.851562 186.152344 C 39.40625 185.980469 39.1875 185.476562 39.363281 185.035156 L 55.902344 142.304688 C 56.035156 141.964844 56.359375 141.753906 56.703125 141.753906 " fill-opacity="1" fill-rule="nonzero"/></g><g fill="#2a446b" fill-opacity="1"><g transform="translate(87.634218, 179.838664)"><g><path d="M 18.390625 -6.300781 L 11.578125 -31.9375 L 2.164062 -31.9375 L 2.164062 0 L 8.308594 0 L 8.308594 -26.660156 L 15.320312 0 L 21.421875 0 L 28.394531 -26.621094 L 28.394531 0 L 34.574219 0 L 34.574219 -31.9375 L 25.164062 -31.9375 Z M 18.390625 -6.300781 "/></g></g></g><g fill="#2a446b" fill-opacity="1"><g transform="translate(122.871846, 179.838664)"><g><path d="M 12.601562 0.628906 C 14.886719 0.628906 19.335938 0.117188 23.078125 -0.550781 L 23.078125 -22.605469 L 16.855469 -22.605469 L 16.855469 -5.121094 C 15.398438 -4.84375 13.980469 -4.726562 12.878906 -4.726562 C 9.921875 -4.726562 8.386719 -5.75 8.386719 -8.625 L 8.386719 -22.605469 L 2.125 -22.605469 L 2.125 -8.113281 C 2.125 -1.339844 7.007812 0.628906 12.601562 0.628906 Z M 12.601562 0.628906 "/></g></g></g><g fill="#2a446b" fill-opacity="1"><g transform="translate(146.612838, 179.838664)"><g><path d="M 8.386719 0 L 8.386719 -16.539062 C 8.898438 -16.65625 11.460938 -16.855469 12.40625 -16.855469 L 15.792969 -16.855469 L 15.792969 -22.605469 L 11.378906 -22.605469 C 9.332031 -22.605469 5.433594 -22.445312 2.125 -21.738281 L 2.125 0 Z M 8.386719 0 "/></g></g></g><g fill="#2a446b" fill-opacity="1"><g transform="translate(162.400678, 179.838664)"><g><path d="M 5.238281 -25.558594 C 6.96875 -25.558594 8.347656 -26.425781 8.347656 -28.3125 C 8.347656 -30.007812 7.089844 -31.03125 5.238281 -31.03125 C 3.425781 -31.03125 2.125 -30.007812 2.125 -28.3125 C 2.125 -26.425781 3.542969 -25.558594 5.238281 -25.558594 Z M 8.386719 0 L 8.386719 -22.605469 L 2.125 -22.605469 L 2.125 0 Z M 8.386719 0 "/></g></g></g><g fill="#2a446b" fill-opacity="1"><g transform="translate(171.416523, 179.838664)"><g><path d="M 8.386719 0 L 8.386719 -31.9375 L 2.125 -31.9375 L 2.125 0 Z M 8.386719 0 "/></g></g></g><g fill="#2a446b" fill-opacity="1"><g transform="translate(180.432363, 179.838664)"><g><path d="M 8.386719 0 L 8.386719 -31.9375 L 2.125 -31.9375 L 2.125 0 Z M 8.386719 0 "/></g></g></g><g fill="#2a446b" fill-opacity="1"><g transform="translate(189.448213, 179.838664)"><g><path d="M 14.136719 0.628906 C 21.539062 0.628906 26.699219 -4.488281 26.699219 -11.460938 L 26.699219 -11.5 C 26.699219 -18.429688 21.539062 -23.511719 14.136719 -23.511719 C 6.734375 -23.511719 1.613281 -18.429688 1.613281 -11.5 L 1.613281 -11.460938 C 1.613281 -4.488281 6.773438 0.628906 14.136719 0.628906 Z M 14.136719 -4.960938 C 10.394531 -4.960938 7.875 -7.796875 7.875 -11.460938 L 7.875 -11.539062 C 7.875 -15.160156 10.355469 -17.917969 14.136719 -17.917969 C 17.957031 -17.917969 20.398438 -15.160156 20.398438 -11.539062 L 20.398438 -11.460938 C 20.398438 -7.796875 17.917969 -4.960938 14.136719 -4.960938 Z M 14.136719 -4.960938 "/></g></g></g><g fill="#2a446b" fill-opacity="1"><g transform="translate(216.220853, 179.838664)"><g/></g></g><g fill="#2a446b" fill-opacity="1"><g transform="translate(221.378238, 179.838664)"><g><path d="M 13.230469 0.511719 C 20.910156 0.511719 25.675781 -2.953125 25.675781 -8.9375 L 25.675781 -9.019531 C 25.675781 -14.453125 22.800781 -16.617188 14.6875 -19.140625 C 10.394531 -20.515625 8.703125 -21.460938 8.703125 -23.667969 L 8.703125 -23.707031 C 8.703125 -25.558594 10.4375 -26.976562 14.097656 -26.976562 C 17.210938 -26.976562 20.359375 -26.070312 22.683594 -24.535156 L 25.046875 -29.691406 C 22.328125 -31.464844 18.195312 -32.488281 14.058594 -32.488281 C 6.8125 -32.488281 2.480469 -28.90625 2.480469 -23.589844 L 2.480469 -23.511719 C 2.480469 -18.234375 4.882812 -15.753906 11.851562 -13.664062 C 17.5625 -11.894531 19.414062 -11.027344 19.414062 -8.898438 L 19.414062 -8.859375 C 19.414062 -6.417969 16.855469 -5.039062 12.996094 -5.039062 C 9.53125 -5.039062 6.183594 -5.984375 3.820312 -7.5625 L 1.457031 -2.441406 C 4.292969 -0.550781 8.664062 0.511719 13.230469 0.511719 Z M 13.230469 0.511719 "/></g></g></g><g fill="#2a446b" fill-opacity="1"><g transform="translate(247.324055, 179.838664)"><g><path d="M 12.679688 -23.390625 C 9.804688 -23.390625 6.457031 -22.761719 4.765625 -22.09375 L 3.386719 -16.539062 C 5.867188 -17.523438 9.097656 -18.113281 11.339844 -18.113281 C 14.808594 -18.113281 16.777344 -17.089844 16.777344 -14.253906 L 16.777344 -13.429688 C 14.925781 -13.664062 13.308594 -13.742188 11.65625 -13.742188 C 5.472656 -13.742188 1.574219 -11.539062 1.574219 -6.734375 L 1.574219 -6.65625 C 1.574219 -1.339844 5.867188 0.628906 12.796875 0.628906 C 15.871094 0.628906 19.925781 0.195312 23.039062 -0.472656 L 23.039062 -14.453125 C 23.039062 -21.148438 18.941406 -23.390625 12.679688 -23.390625 Z M 7.996094 -7.050781 C 7.996094 -9.058594 9.882812 -9.765625 13.035156 -9.765625 C 14.019531 -9.765625 15.515625 -9.648438 16.777344 -9.453125 L 16.777344 -4.566406 C 15.476562 -4.371094 14.097656 -4.253906 13.035156 -4.253906 C 9.84375 -4.253906 7.996094 -5.039062 7.996094 -6.96875 Z M 7.996094 -7.050781 "/></g></g></g><g fill="#2a446b" fill-opacity="1"><g transform="translate(270.907556, 179.838664)"><g><path d="M 8.386719 0 L 8.386719 -17.523438 C 9.84375 -17.761719 11.261719 -17.917969 12.367188 -17.917969 C 15.28125 -17.917969 16.855469 -16.855469 16.855469 -14.019531 L 16.855469 0 L 23.078125 0 L 23.078125 -14.765625 C 23.078125 -21.539062 18.234375 -23.511719 12.640625 -23.511719 C 10.355469 -23.511719 5.90625 -22.996094 2.125 -22.328125 L 2.125 0 Z M 8.386719 0 "/></g></g></g><g fill="#2a446b" fill-opacity="1"><g transform="translate(294.648554, 179.838664)"><g><path d="M 19.414062 0 L 19.414062 -5.789062 L 15.042969 -5.789062 C 12.367188 -5.789062 11.144531 -6.8125 11.144531 -9.332031 L 11.144531 -16.855469 L 19.375 -16.855469 L 19.375 -22.605469 L 11.144531 -22.605469 L 11.144531 -29.535156 L 4.882812 -29.535156 L 4.882812 -22.605469 L 0.90625 -22.605469 L 0.90625 -16.855469 L 4.882812 -16.855469 L 4.882812 -7.363281 C 4.882812 -2.441406 6.851562 0 12.246094 0 Z M 19.414062 0 "/></g></g></g><g fill="#2a446b" fill-opacity="1"><g transform="translate(314.216116, 179.838664)"><g><path d="M 14.136719 0.628906 C 21.539062 0.628906 26.699219 -4.488281 26.699219 -11.460938 L 26.699219 -11.5 C 26.699219 -18.429688 21.539062 -23.511719 14.136719 -23.511719 C 6.734375 -23.511719 1.613281 -18.429688 1.613281 -11.5 L 1.613281 -11.460938 C 1.613281 -4.488281 6.773438 0.628906 14.136719 0.628906 Z M 14.136719 -4.960938 C 10.394531 -4.960938 7.875 -7.796875 7.875 -11.460938 L 7.875 -11.539062 C 7.875 -15.160156 10.355469 -17.917969 14.136719 -17.917969 C 17.957031 -17.917969 20.398438 -15.160156 20.398438 -11.539062 L 20.398438 -11.460938 C 20.398438 -7.796875 17.917969 -4.960938 14.136719 -4.960938 Z M 14.136719 -4.960938 "/></g></g></g><g fill="#2a446b" fill-opacity="1"><g transform="translate(340.988756, 179.838664)"><g><path d="M 11.539062 0.511719 C 18.273438 0.511719 21.621094 -1.929688 21.621094 -6.8125 C 21.621094 -10.394531 19.257812 -12.601562 14.175781 -14.019531 L 12.5625 -14.453125 C 9.84375 -15.238281 8.742188 -15.792969 8.742188 -16.933594 C 8.742188 -18.195312 10.082031 -18.625 12.367188 -18.625 C 14.296875 -18.625 17.011719 -18.195312 19.019531 -17.128906 L 20.832031 -21.5 C 18.507812 -22.722656 15.042969 -23.46875 11.617188 -23.46875 C 5.75 -23.46875 2.441406 -20.910156 2.441406 -16.738281 C 2.441406 -12.996094 4.566406 -10.789062 9.292969 -9.53125 L 11.421875 -8.980469 C 14.726562 -8.074219 15.476562 -7.5625 15.476562 -6.339844 C 15.476562 -4.6875 13.664062 -4.332031 10.988281 -4.332031 C 8.703125 -4.332031 5.945312 -4.84375 3.308594 -5.984375 L 1.613281 -1.457031 C 4.84375 -0.117188 7.996094 0.511719 11.539062 0.511719 Z M 11.539062 0.511719 "/></g></g></g></svg>